<svg xmlns="http://www.w3.org/2000/svg" fill="none" viewBox="0 0 75 45.834" width="75" height="45.834"><g clip-path="url(#prefix__clip0)"><path fill="#38bdf8" fill-rule="evenodd" d="M37.5 0Q22.5 0 18.75 15 24.375 7.5 31.875 9.375c2.853 0.713 4.894 2.784 7.147 5.072C42.697 18.184 46.953 22.5 56.25 22.5q15 0 18.75 -15 -5.625 7.5 -13.125 5.625c-2.853 -0.713 -4.894 -2.784 -7.147 -5.072C51.053 4.316 46.797 0 37.5 0M18.75 22.5q-15 0 -18.75 15 5.625 -7.5 13.125 -5.625c2.853 0.713 4.894 2.784 7.147 5.072C23.947 40.681 28.206 45 37.5 45q15 0 18.75 -15 -5.625 7.5 -13.125 5.625c-2.853 -0.713 -4.894 -2.784 -7.147 -5.072C32.303 26.819 28.044 22.5 18.75 22.5" clip-rule="evenodd"/></g><defs><clipPath id="prefix__clip0"><path fill="#fff" d="M0 0h75v45H0z"/></clipPath></defs></svg>